<svg xmlns:xlink="http://www.w3.org/1999/xlink" height="676" xmlns:ev="http://www.w3.org/2001/xml-events" ed:name="Page-1" ed:hSpacing="30" width="799" viewBox="0 0 799 676" xmlns:ed="https://www.edrawsoft.cn/xml/2017/SVGExtensions/" xmlns="http://www.w3.org/2000/svg" ed:vSpacing="30" id="page100"><style type="text/css"><![CDATA[
g[ed\:togtopicid],g[ed\:hyperlink],g[ed\:comment],g[ed\:note] {cursor:pointer;}
g[id] {-moz-user-select: none;-ms-user-select: none;user-select: none;}
svg text::selection,svg tspan::selection{background-color: #4285f4;color: #ffffff;fill: #ffffff;}
.st5 {fill:#000000}
.st2 {fill:#08488f;font-family:微软雅黑;font-size:12pt}
.st10 {fill:#08488f}
.st8 {fill:#303030;font-family:微软雅黑;font-size:10pt}
.st6 {fill:#303030;font-family:微软雅黑;font-size:12pt}
.st4 {fill:#303030}
.st11 {fill:#454545;font-family:微软雅黑;font-size:10pt}
.st9 {fill:#454545}
.st7 {fill:#d25948;font-family:微软雅黑;font-size:12pt}
.st3 {fill:#d25948}
.st1 {fill:#ffffff;font-family:微软雅黑;font-size:14pt}
]]></style><defs><linearGradient x2="0%" x1="0%" y1="0%" id="lg1" y2="100%"><stop stop-color="#ffffff" offset="0"/><stop stop-color="#f0f5f0" offset="0.25"/><stop stop-color="#e1ebe1" offset="0.75"/><stop stop-color="#c8d7c8" offset="1"/></linearGradient></defs><rect x="0" fill="#ffffff" height="676" y="0" width="799"/><path stroke-linecap="round" stroke="#696969" stroke-linejoin="round" d="M-32.9,120.8C-0.1,46.1,-23.5,-149.3,67.8,-149.3" fill="none" id="103" ed:tosuperid="102" ed:parentid="101" transform="matrix(1,0,0,1,163,189)"/><path stroke-linecap="round" stroke="#696969" stroke-linejoin="round" d="M-29.3,-76.5C-0.3,-19.1,-5.2,105,67.8,105" fill="none" id="107" ed:tosuperid="106" ed:parentid="101" transform="matrix(1,0,0,1,163,443)"/><path stroke-linecap="round" stroke="#696969" stroke-linejoin="round" d="M-32.6,-116.1C-0.2,-43.2,-21.8,144.6,67.8,144.6" fill="none" id="109" ed:tosuperid="108" ed:parentid="101" transform="matrix(1,0,0,1,163,483)"/><path stroke-linecap="round" stroke="#696969" stroke-linejoin="round" d="M-22.1,-36.9C3.5,1.6,14.9,65.4,67.8,65.4" fill="none" id="111" ed:tosuperid="110" ed:parentid="101" transform="matrix(1,0,0,1,163,403)"/><path stroke-linecap="round" stroke="#696969" stroke-linejoin="round" d="M4.8,1.8C23.3,14,41.6,25.8,67.8,25.8" fill="none" id="113" ed:tosuperid="112" ed:parentid="101" transform="matrix(1,0,0,1,163,364)"/><path stroke-linecap="round" stroke="#696969" stroke-linejoin="round" d="M4.8,-0.2C25.6,-4.7,45.2,-9.3,67.8,-9.3" fill="none" id="115" ed:tosuperid="114" ed:parentid="101" transform="matrix(1,0,0,1,163,329)"/><path stroke-linecap="round" stroke="#696969" stroke-linejoin="round" d="M-13.1,15.8C9.9,-10.1,27.6,-44.3,67.8,-44.3" fill="none" id="117" ed:tosuperid="116" ed:parentid="101" transform="matrix(1,0,0,1,163,294)"/><path stroke-linecap="round" stroke="#696969" stroke-linejoin="round" d="M-25.4,50.8C1.4,5.1,7.4,-79.3,67.8,-79.3" fill="none" id="119" ed:tosuperid="118" ed:parentid="101" transform="matrix(1,0,0,1,163,259)"/><path stroke-linecap="round" stroke="#696969" stroke-linejoin="round" d="M-30.3,85.8C-0.5,24.5,-9.4,-114.3,67.8,-114.3" fill="none" id="121" ed:tosuperid="120" ed:parentid="101" transform="matrix(1,0,0,1,163,224)"/><path stroke-linecap="round" stroke="#696969" stroke-linejoin="round" d="M-13.5,-13.9C0.5,-13.9,-2,13.9,13.5,13.9" fill="none" id="130" ed:tosuperid="129" ed:parentid="110" transform="matrix(1,0,0,1,482,483)"/><path stroke-linecap="round" stroke="#696969" stroke-linejoin="round" d="M-13.5,1.6C-2.3,1.6,4.5,-1.6,13.5,-1.6" fill="none" id="132" ed:tosuperid="131" ed:parentid="110" transform="matrix(1,0,0,1,482,467)"/><path stroke-linecap="round" stroke="#696969" stroke-linejoin="round" d="M-13.5,-6.1C-1.3,-6.1,2.1,6.1,13.5,6.1" fill="none" id="134" ed:tosuperid="133" ed:parentid="112" transform="matrix(1,0,0,1,532,396)"/><path stroke-linecap="round" stroke="#696969" stroke-linejoin="round" d="M-13.5,1.6C-2.3,1.6,4.5,-1.6,13.5,-1.6" fill="none" id="136" ed:tosuperid="135" ed:parentid="108" transform="matrix(1,0,0,1,595,626)"/><path stroke-linecap="round" stroke="#696969" stroke-linejoin="round" d="M-13.5,-13.9C0.5,-13.9,-2,13.9,13.5,13.9" fill="none" id="138" ed:tosuperid="137" ed:parentid="108" transform="matrix(1,0,0,1,595,641)"/><path stroke-linecap="round" stroke="#696969" stroke-linejoin="round" d="M-13.5,-6.1C-1.3,-6.1,2.1,6.1,13.5,6.1" fill="none" id="140" ed:tosuperid="139" ed:parentid="114" transform="matrix(1,0,0,1,377,326)"/><g ed:layout="map" ed:width="145" ed:height="57" id="101" transform="matrix(1,0,0,1,23,310)" ed:topictype="mainidea"><path stroke-width="3" d="M4,0L141,0C143.2,0,145,1.8,145,4L145,53C145,55.2,143.2,57,141,57L4,57C1.8,57,0,55.2,0,53L0,4C0,1.8,1.8,0,4,0z" stroke="#435fbc" stroke-linejoin="round" fill="#435fbc"/><text class="st1"><tspan x="21" y="34.5" style="white-space:pre">shader语义</tspan></text></g><g ed:layout="rightmap" ed:width="268" ed:height="37" id="102" ed:parentid="101" transform="matrix(1,0,0,1,231,21)"><path d="M4,0L264,0C266.2,0,268,1.8,268,4L268,33C268,35.2,266.2,37,264,37L4,37C1.8,37,0,35.2,0,33L0,4C0,1.8,1.8,0,4,0z" stroke="#ebecf3" stroke-linejoin="round" fill="#ebecf3"/><text class="st2"><tspan x="18" y="23.4" class="st3" style="white-space:pre">SV_Target </tspan><tspan class="st4" style="white-space:pre">颜色输出信息 </tspan><tspan style="white-space:pre">fixed4</tspan></text></g><g ed:layout="rightmap" ed:width="281" ed:height="37" id="106" ed:parentid="101" transform="matrix(1,0,0,1,231,530)"><path d="M4,0L277,0C279.2,0,281,1.8,281,4L281,33C281,35.2,279.2,37,277,37L4,37C1.8,37,0,35.2,0,33L0,4C0,1.8,1.8,0,4,0z" stroke="#ebecf3" stroke-linejoin="round" fill="#ebecf3"/><text class="st2"><tspan x="18" y="23.4" class="st3" style="white-space:pre">SV_TargetN </tspan><tspan class="st5" style="white-space:pre">多个渲染目标 </tspan><tspan style="white-space:pre">fixed4</tspan></text></g><g ed:layout="rightmap" ed:width="350" ed:height="37" id="108" ed:parentid="101" transform="matrix(1,0,0,1,231,609)"><path d="M4,0L346,0C348.2,0,350,1.8,350,4L350,33C350,35.2,348.2,37,346,37L4,37C1.8,37,0,35.2,0,33L0,4C0,1.8,1.8,0,4,0z" stroke="#ebecf3" stroke-linejoin="round" fill="#ebecf3"/><text class="st2"><tspan x="18" y="23.4" class="st3" style="white-space:pre">SV_Depth </tspan><tspan class="st5" style="white-space:pre">像素着色器深度自定义输出 </tspan><tspan style="white-space:pre">float</tspan></text></g><g ed:layout="rightmap" ed:width="237" ed:height="37" id="110" ed:parentid="101" transform="matrix(1,0,0,1,231,450)"><path d="M4,0L233,0C235.2,0,237,1.8,237,4L237,33C237,35.2,235.2,37,233,37L4,37C1.8,37,0,35.2,0,33L0,4C0,1.8,1.8,0,4,0z" stroke="#ebecf3" stroke-linejoin="round" fill="#ebecf3"/><text class="st2"><tspan x="18" y="23.4" class="st3" style="white-space:pre">VPOS </tspan><tspan class="st4" style="white-space:pre">屏幕像素位置 </tspan><tspan style="white-space:pre">float4 </tspan></text></g><g ed:layout="rightmap" ed:width="287" ed:height="37" id="112" ed:parentid="101" transform="matrix(1,0,0,1,231,371)"><path d="M4,0L283,0C285.2,0,287,1.8,287,4L287,33C287,35.2,285.2,37,283,37L4,37C1.8,37,0,35.2,0,33L0,4C0,1.8,1.8,0,4,0z" stroke="#ebecf3" stroke-linejoin="round" fill="#ebecf3"/><text class="st6"><tspan x="18" y="23.4" class="st3" style="white-space:pre">VFACE </tspan><tspan style="white-space:pre">面对摄像机或者背对摄像机</tspan></text></g><g ed:layout="rightmap" ed:width="132" ed:height="37" id="114" ed:parentid="101" transform="matrix(1,0,0,1,231,301)"><path d="M4,0L128,0C130.2,0,132,1.8,132,4L132,33C132,35.2,130.2,37,128,37L4,37C1.8,37,0,35.2,0,33L0,4C0,1.8,1.8,0,4,0z" stroke="#ebecf3" stroke-linejoin="round" fill="#ebecf3"/><text class="st7"><tspan x="18" y="23.4" style="white-space:pre">SV_VertexID</tspan></text></g><g ed:layout="rightmap" ed:width="462" ed:height="37" id="116" ed:parentid="101" transform="matrix(1,0,0,1,231,231)"><path d="M4,0L458,0C460.2,0,462,1.8,462,4L462,33C462,35.2,460.2,37,458,37L4,37C1.8,37,0,35.2,0,33L0,4C0,1.8,1.8,0,4,0z" stroke="#ebecf3" stroke-linejoin="round" fill="#ebecf3"/><text class="st2"><tspan x="18" y="23.4" class="st3" style="white-space:pre">TEXCOORD0 </tspan><tspan class="st5" style="white-space:pre">任意高精度数据，诸如纹理坐标和位置 </tspan><tspan style="white-space:pre">float4</tspan></text></g><g ed:layout="rightmap" ed:width="224" ed:height="37" id="118" ed:parentid="101" transform="matrix(1,0,0,1,231,161)"><path d="M4,0L220,0C222.2,0,224,1.8,224,4L224,33C224,35.2,222.2,37,220,37L4,37C1.8,37,0,35.2,0,33L0,4C0,1.8,1.8,0,4,0z" stroke="#ebecf3" stroke-linejoin="round" fill="#ebecf3"/><text class="st2"><tspan x="18" y="23.4" class="st3" style="white-space:pre">COLOR0 </tspan><tspan class="st4" style="white-space:pre">颜色信息 </tspan><tspan style="white-space:pre">fixed4</tspan></text></g><g ed:layout="rightmap" ed:width="294" ed:height="37" id="120" ed:parentid="101" transform="matrix(1,0,0,1,231,91)"><path d="M4,0L290,0C292.2,0,294,1.8,294,4L294,33C294,35.2,292.2,37,290,37L4,37C1.8,37,0,35.2,0,33L0,4C0,1.8,1.8,0,4,0z" stroke="#ebecf3" stroke-linejoin="round" fill="#ebecf3"/><text class="st2"><tspan x="18" y="23.4" class="st3" style="white-space:pre">SV_POSITION </tspan><tspan class="st4" style="white-space:pre">位置坐标信息 </tspan><tspan style="white-space:pre">float4</tspan></text></g><g ed:layout="rightmap" ed:width="283" ed:height="24.5" id="129" ed:parentid="110" transform="matrix(1,0,0,1,495,472)"><path stroke="#696969" stroke-linejoin="round" d="M0,24.5L283,24.5" fill="none"/><text class="st8"><tspan x="8" y="16.1" class="st9" style="white-space:pre">为了适应多平台使用</tspan><tspan class="st10" style="white-space:pre">UNITY_VPOS_TYPE</tspan><tspan style="white-space:pre">声明 </tspan></text></g><g ed:layout="rightmap" ed:width="193" ed:height="24.5" id="131" ed:parentid="110" transform="matrix(1,0,0,1,495,441)"><path stroke="#696969" stroke-linejoin="round" d="M0,24.5L193,24.5" fill="none"/><text class="st8"><tspan x="8" y="16.1" style="white-space:pre">需要使用</tspan><tspan class="st10" style="white-space:pre"> #pragma target 3.0</tspan></text></g><g ed:layout="rightmap" ed:width="193" ed:height="24.5" id="133" ed:parentid="112" transform="matrix(1,0,0,1,545,377)"><path stroke="#696969" stroke-linejoin="round" d="M0,24.5L193,24.5" fill="none"/><text class="st8"><tspan x="8" y="16.1" style="white-space:pre">需要使用</tspan><tspan class="st10" style="white-space:pre"> #pragma target 3.5</tspan></text></g><g ed:layout="rightmap" ed:width="83" ed:height="24.5" id="135" ed:parentid="108" transform="matrix(1,0,0,1,608,600)"><path stroke="#696969" stroke-linejoin="round" d="M0,24.5L83,24.5" fill="none"/><text class="st11"><tspan x="8" y="16.1" style="white-space:pre">一般不使用</tspan></text></g><g ed:layout="rightmap" ed:width="155" ed:height="24.5" id="137" ed:parentid="108" transform="matrix(1,0,0,1,608,631)"><path stroke="#696969" stroke-linejoin="round" d="M0,24.5L155,24.5" fill="none"/><text class="st11"><tspan x="8" y="16.1" style="white-space:pre">与alpha测试一样的消耗</tspan></text></g><g ed:layout="rightmap" ed:width="193" ed:height="24.5" id="139" ed:parentid="114" transform="matrix(1,0,0,1,390,307)"><path stroke="#696969" stroke-linejoin="round" d="M0,24.5L193,24.5" fill="none"/><text class="st8"><tspan x="8" y="16.1" style="white-space:pre">需要使用</tspan><tspan class="st10" style="white-space:pre"> #pragma target 3.5</tspan></text></g><symbol id="plus"><path d="M11,6C11,8.8,8.8,11,6,11C3.2,11,1,8.8,1,6C1,3.2,3.2,1,6,1C8.8,1,11,3.2,11,6z" fill="url(#lg1)"/><path stroke-width="0.7" stroke="#46a000" d="M11,6C11,8.8,8.8,11,6,11C3.2,11,1,8.8,1,6C1,3.2,3.2,1,6,1C8.8,1,11,3.2,11,6zM3,6L9,6M6,3L6,9" fill="none"/></symbol><symbol id="minus"><path d="M11,6C11,8.8,8.8,11,6,11C3.2,11,1,8.8,1,6C1,3.2,3.2,1,6,1C8.8,1,11,3.2,11,6z" fill="url(#lg1)"/><path stroke-width="0.7" stroke="#46a000" d="M11,6C11,8.8,8.8,11,6,11C3.2,11,1,8.8,1,6C1,3.2,3.2,1,6,1C8.8,1,11,3.2,11,6zM3,6L9,6" fill="none"/></symbol><g ed:togtopicid="101" transform="translate(169,332)"><use xlink:href="#minus"/></g><g ed:togtopicid="108" transform="translate(582,621)"><use xlink:href="#minus"/></g><g ed:togtopicid="110" transform="translate(469,463)"><use xlink:href="#minus"/></g><g ed:togtopicid="112" transform="translate(519,384)"><use xlink:href="#minus"/></g><g ed:togtopicid="114" transform="translate(364,314)"><use xlink:href="#minus"/></g></svg>